<?xml version="1.0" encoding="UTF-8" standalone="no"?>
<svg
   xmlns:dc="http://purl.org/dc/elements/1.1/"
   xmlns:cc="http://creativecommons.org/ns#"
   xmlns:rdf="http://www.w3.org/1999/02/22-rdf-syntax-ns#"
   xmlns:svg="http://www.w3.org/2000/svg"
   xmlns="http://www.w3.org/2000/svg"
   xmlns:sodipodi="http://sodipodi.sourceforge.net/DTD/sodipodi-0.dtd"
   xmlns:inkscape="http://www.inkscape.org/namespaces/inkscape"
   enable-background="new 0 0 28.648 29.484"
   height="29.483999"
   id="Capa_1"
   version="1.1"
   viewBox="0 0 29.483999 29.484"
   width="29.483999"
   xml:space="preserve"
   inkscape:version="0.91 r13725"
   sodipodi:docname="menu-view.svg"
   inkscape:export-filename="/home/nathaniel/Projects/SS/Git/Libraries/Swidget/src/main/resources/swidget/icons/48/menu-view.png"
   inkscape:export-xdpi="146.52016"
   inkscape:export-ydpi="146.52016"><metadata
     id="metadata13"><rdf:RDF><cc:Work
         rdf:about=""><dc:format>image/svg+xml</dc:format><dc:type
           rdf:resource="http://purl.org/dc/dcmitype/StillImage" /><dc:title></dc:title></cc:Work></rdf:RDF></metadata><defs
     id="defs11" /><sodipodi:namedview
     pagecolor="#ffffff"
     bordercolor="#666666"
     borderopacity="1"
     objecttolerance="10"
     gridtolerance="10"
     guidetolerance="10"
     inkscape:pageopacity="0"
     inkscape:pageshadow="2"
     inkscape:window-width="1920"
     inkscape:window-height="1016"
     id="namedview9"
     showgrid="false"
     inkscape:zoom="8.0043415"
     inkscape:cx="-5.4152873"
     inkscape:cy="14.742"
     inkscape:window-x="0"
     inkscape:window-y="27"
     inkscape:window-maximized="1"
     inkscape:current-layer="Capa_1" /><g
     id="g3"
     transform="matrix(1.0291601,0,0,1.0291601,3.0983775e-4,-0.42987857)"><path
       d="M 27.598,12.929 C 24.835,10.683 20.19,7.418 14.342,7.308 c -0.006,0 -0.012,0 -0.018,0 -0.006,0 -0.012,0 -0.018,0 C 8.464,7.42 3.812,10.683 1.052,12.929 0.92,13.038 0.016,13.729 0,14.616 c -0.011,0.624 0.28,1.085 0.699,1.47 2.255,2.182 7.176,6.059 13.609,6.088 l 0,0.002 c 0.006,0 0.012,0 0.018,0 0.005,0 0.011,0 0.018,0 l 0,-0.002 c 6.445,-0.029 11.354,-3.906 13.607,-6.088 0.418,-0.385 0.708,-0.846 0.697,-1.47 -0.016,-0.887 -0.918,-1.578 -1.05,-1.687 z m -13.272,7.567 c -3.162,-0.021 -5.719,-2.59 -5.719,-5.756 0,-3.167 2.557,-5.735 5.719,-5.755 3.17,0.02 5.718,2.589 5.718,5.755 0,3.166 -2.547,5.735 -5.718,5.756 z"
       id="path5"
       inkscape:connector-curvature="0" /><path
       d="m 14.344,12.503 c -0.006,-10e-4 -0.012,-10e-4 -0.018,-10e-4 -0.006,0 -0.012,0 -0.018,0 l 0,10e-4 c -1.21,0.03 -2.186,1.021 -2.186,2.237 0,1.217 0.975,2.208 2.186,2.235 l 0,0.002 c 0.006,0 0.012,-0.002 0.018,-0.002 0.005,0 0.011,0.002 0.018,0.002 l 0,-0.002 c 1.222,-0.027 2.186,-1.02 2.186,-2.235 -0.004,-1.218 -0.967,-2.207 -2.186,-2.237 z"
       id="path7"
       inkscape:connector-curvature="0" /></g></svg>